<?xml version="1.0" encoding="UTF-8" standalone="no"?>
<!-- Uploaded to: SVG Repo, www.svgrepo.com, Generator: SVG Repo Mixer Tools -->

<svg
   width="800px"
   height="800px"
   viewBox="0 0 24 24"
   version="1.1"
   id="svg1236"
   sodipodi:docname="facebook.svg"
   inkscape:version="1.2.1 (9c6d41e410, 2022-07-14)"
   xmlns:inkscape="http://www.inkscape.org/namespaces/inkscape"
   xmlns:sodipodi="http://sodipodi.sourceforge.net/DTD/sodipodi-0.dtd"
   xmlns="http://www.w3.org/2000/svg"
   xmlns:svg="http://www.w3.org/2000/svg">
  <defs
     id="defs1240" />
  <sodipodi:namedview
     id="namedview1238"
     pagecolor="#ffffff"
     bordercolor="#000000"
     borderopacity="0.25"
     inkscape:showpageshadow="2"
     inkscape:pageopacity="0.0"
     inkscape:pagecheckerboard="0"
     inkscape:deskcolor="#d1d1d1"
     showgrid="false"
     showguides="false"
     inkscape:zoom="0.65625"
     inkscape:cx="400.7619"
     inkscape:cy="400.7619"
     inkscape:window-width="1366"
     inkscape:window-height="705"
     inkscape:window-x="-8"
     inkscape:window-y="-8"
     inkscape:window-maximized="1"
     inkscape:current-layer="svg1236">
    <sodipodi:guide
       position="9.5542857,9.5085714"
       orientation="0,-1"
       id="guide1359"
       inkscape:locked="false" />
  </sodipodi:namedview>
  <title
     id="title1230">social_facebook</title>
  <rect
     width="24"
     height="24"
     fill="none"
     id="rect1232" />
  <path
     d="M5,3H19a2,2,0,0,1,2,2V19a2,2,0,0,1-2,2H5a2,2,0,0,1-2-2V5A2,2,0,0,1,5,3M18,5H15.5A3.5,3.5,0,0,0,12,8.5V11H10v3h2v7h3V14h3V11H15V9a1,1,0,0,1,1-1h2Z"
     id="path1234"
     style="fill:#6ce2ff;fill-opacity:1" />
</svg>
