<?xml version="1.0" encoding="UTF-8" standalone="no"?>
<!-- Uploaded to: SVG Repo, www.svgrepo.com, Generator: SVG Repo Mixer Tools -->

<svg
   width="800px"
   height="800px"
   viewBox="0 0 192 192"
   fill="none"
   version="1.1"
   id="svg430"
   sodipodi:docname="instagram.svg"
   inkscape:version="1.2.1 (9c6d41e410, 2022-07-14)"
   xmlns:inkscape="http://www.inkscape.org/namespaces/inkscape"
   xmlns:sodipodi="http://sodipodi.sourceforge.net/DTD/sodipodi-0.dtd"
   xmlns="http://www.w3.org/2000/svg"
   xmlns:svg="http://www.w3.org/2000/svg">
  <defs
     id="defs434" />
  <sodipodi:namedview
     id="namedview432"
     pagecolor="#ffffff"
     bordercolor="#000000"
     borderopacity="0.25"
     inkscape:showpageshadow="2"
     inkscape:pageopacity="0.0"
     inkscape:pagecheckerboard="0"
     inkscape:deskcolor="#d1d1d1"
     showgrid="false"
     inkscape:zoom="0.65625"
     inkscape:cx="400.7619"
     inkscape:cy="400.7619"
     inkscape:window-width="1366"
     inkscape:window-height="705"
     inkscape:window-x="-8"
     inkscape:window-y="-8"
     inkscape:window-maximized="1"
     inkscape:current-layer="svg430" />
  <path
     stroke="#000000"
     stroke-width="12"
     d="M96 162c-14.152 0-24.336-.007-32.276-.777-7.849-.761-12.87-2.223-16.877-4.741a36 36 0 0 1-11.33-11.329c-2.517-4.007-3.98-9.028-4.74-16.877C30.007 120.336 30 110.152 30 96c0-14.152.007-24.336.777-32.276.76-7.849 2.223-12.87 4.74-16.877a36 36 0 0 1 11.33-11.33c4.007-2.517 9.028-3.98 16.877-4.74C71.663 30.007 81.847 30 96 30c14.152 0 24.336.007 32.276.777 7.849.76 12.87 2.223 16.877 4.74a36 36 0 0 1 11.329 11.33c2.518 4.007 3.98 9.028 4.741 16.877.77 7.94.777 18.124.777 32.276 0 14.152-.007 24.336-.777 32.276-.761 7.849-2.223 12.87-4.741 16.877a36 36 0 0 1-11.329 11.329c-4.007 2.518-9.028 3.98-16.877 4.741-7.94.77-18.124.777-32.276.777Z"
     id="path424"
     style="stroke:#6ce2ff;stroke-opacity:1" />
  <circle
     cx="96"
     cy="96"
     r="30"
     stroke="#000000"
     stroke-width="12"
     id="circle426"
     style="stroke:#6ce2ff;stroke-opacity:1" />
  <circle
     cx="135"
     cy="57"
     r="9"
     fill="#000000"
     id="circle428"
     style="fill:#6ce2ff;fill-opacity:1" />
</svg>
