<?xml version="1.0" encoding="UTF-8" standalone="no"?>
<!-- Uploaded to: SVG Repo, www.svgrepo.com, Generator: SVG Repo Mixer Tools -->

<svg
   width="800px"
   height="800px"
   viewBox="0 0 24 24"
   version="1.1"
   id="svg301"
   sodipodi:docname="linkedin.svg"
   inkscape:version="1.2.1 (9c6d41e410, 2022-07-14)"
   xmlns:inkscape="http://www.inkscape.org/namespaces/inkscape"
   xmlns:sodipodi="http://sodipodi.sourceforge.net/DTD/sodipodi-0.dtd"
   xmlns="http://www.w3.org/2000/svg"
   xmlns:svg="http://www.w3.org/2000/svg">
  <defs
     id="defs305" />
  <sodipodi:namedview
     id="namedview303"
     pagecolor="#ffffff"
     bordercolor="#000000"
     borderopacity="0.25"
     inkscape:showpageshadow="2"
     inkscape:pageopacity="0.0"
     inkscape:pagecheckerboard="0"
     inkscape:deskcolor="#d1d1d1"
     showgrid="false"
     inkscape:zoom="0.65625"
     inkscape:cx="400.7619"
     inkscape:cy="400.7619"
     inkscape:window-width="1366"
     inkscape:window-height="705"
     inkscape:window-x="-8"
     inkscape:window-y="-8"
     inkscape:window-maximized="1"
     inkscape:current-layer="svg301" />
  <title
     id="title295">social_linkedin</title>
  <rect
     width="24"
     height="24"
     fill="none"
     id="rect297" />
  <path
     d="M19,3a2,2,0,0,1,2,2V19a2,2,0,0,1-2,2H5a2,2,0,0,1-2-2V5A2,2,0,0,1,5,3H19m-.5,15.5V13.2a3.26,3.26,0,0,0-3.26-3.26h0a2.9,2.9,0,0,0-2.32,1.3V10.13H10.13V18.5h2.79V13.57a1.4,1.4,0,1,1,2.79,0V18.5H18.5M6.88,8.56A1.68,1.68,0,0,0,8.56,6.88h0a1.69,1.69,0,1,0-3.37,0h0A1.69,1.69,0,0,0,6.88,8.56M8.27,18.5V10.13H5.5V18.5Z"
     id="path299"
     style="fill:#6ce2ff;fill-opacity:1" />
</svg>
